<?xml version="1.0" encoding="UTF-8"?>
<svg width="512px" height="512px" viewBox="0 0 512 512" version="1.1" xmlns="http://www.w3.org/2000/svg" xmlns:xlink="http://www.w3.org/1999/xlink">
    <title>Artboard</title>
    <defs>
        <rect id="path-1" x="0" y="0" width="456" height="456" rx="80"></rect>
        <filter id="filter-3">
            <feColorMatrix in="SourceGraphic" type="matrix" values="0 0 0 0 0.000000 0 0 0 0 0.568627 0 0 0 0 1.000000 0 0 0 0.400000 0"></feColorMatrix>
        </filter>
    </defs>
    <g id="Artboard" stroke="none" stroke-width="1" fill="none" fill-rule="evenodd">
        <g id="Cards" transform="translate(28.000000, 28.000000)">
            <mask id="mask-2" fill="white">
                <use xlink:href="#path-1"></use>
            </mask>
            <g id="Mask"></g>
            <g id="Group" mask="url(#mask-2)">
                <g transform="translate(-142.000000, 71.000000)" id="Cards" filter="url(#filter-3)">
                    <g transform="translate(370.000000, 157.000000) rotate(-270.000000) translate(-370.000000, -157.000000) ">
                        <g id="Group" transform="translate(-34.000000, 1.053691)" stroke="#6D3EF0" stroke-width="7">
                            <rect id="Middle" x="296.5" y="3.5" width="215" height="304.892617" rx="16"></rect>
                            <rect id="Left" x="3.5" y="3.5" width="215" height="304.892617" rx="16"></rect>
                        </g>
                    </g>
                </g>
            </g>
        </g>
        <rect id="App-Border" stroke="#0091FF" stroke-width="7" x="28" y="28" width="456" height="456" rx="80"></rect>
        <g id="Controls-/-Progress-Indicator-/-Light-/-Indeterminate-Spinner---Large" transform="translate(232.000000, 397.000000)" fill="">
            <path d="M5.64411429,11.3492571 L14.112,16.2384 C14.6758209,16.5490804 15.0276775,17.1402521 15.0319122,17.7839899 C15.0361469,18.4277277 14.6920983,19.0234773 14.1324135,19.3415485 C13.5727287,19.6596197 12.8848329,19.6503285 12.3339429,19.3172571 L3.86605714,14.4288 C3.02473522,13.9336506 2.73996258,12.8527918 3.22808697,12.0073747 C3.71621135,11.1619575 4.79466061,10.8681917 5.64411429,11.3492571 Z M36,3.21531429 C36.850363,3.70633365 37.1417032,4.79371719 36.6507429,5.64411429 L31.7616,14.112 C31.4509196,14.6758209 30.8597479,15.0276775 30.2160101,15.0319122 C29.5722723,15.0361469 28.9765227,14.6920983 28.6584515,14.1324135 C28.3403803,13.5727287 28.3496715,12.8848329 28.6827429,12.3339429 L33.5718857,3.86605714 C34.0628861,3.01610546 35.1497558,2.72482069 36,3.21531429 L36,3.21531429 Z M35.6660571,28.6827429 L44.1339429,33.5718857 C44.6977637,33.8825661 45.0496204,34.4737378 45.0538551,35.1174756 C45.0580898,35.7612134 44.7140411,36.356963 44.1543563,36.6750342 C43.5946716,36.9931054 42.9067757,36.9838142 42.3558857,36.6507429 L33.888,31.7616 C33.3241791,31.4509196 32.9723225,30.8597479 32.9680878,30.2160101 C32.9638531,29.5722723 33.3079017,28.9765227 33.8675865,28.6584515 C34.4272713,28.3403803 35.1151671,28.3496715 35.6660571,28.6827429 L35.6660571,28.6827429 Z M18.6665143,33.2379429 C19.5168773,33.7289622 19.8082175,34.8163458 19.3172571,35.6667429 L14.4281143,44.1346286 C14.1133383,44.6904523 13.5246037,45.0347157 12.8858386,45.0364765 C12.2470735,45.0382373 11.6564499,44.6972248 11.3386145,44.1431449 C11.020779,43.589065 11.0245799,42.9070743 11.3485714,42.3565714 L16.2377143,33.8886857 C16.4733813,33.4801862 16.8617367,33.1820946 17.3172741,33.0600435 C17.7728115,32.9379924 18.2581804,33.001989 18.6665143,33.2379429 Z M14.4288,3.86605714 L19.3179429,12.3339429 C19.6510142,12.8848329 19.6603054,13.5727287 19.3422342,14.1324135 C19.024163,14.6920983 18.4284134,15.0361469 17.7846756,15.0319122 C17.1409378,15.0276775 16.5497661,14.6758209 16.2390857,14.112 L11.3492571,5.64411429 C10.8681917,4.79466061 11.1619575,3.71621135 12.0073747,3.22808697 C12.8527918,2.73996258 13.9336506,3.02473522 14.4288,3.86605714 Z M44.7846857,12 C45.0204219,12.4082722 45.0842968,12.8934751 44.9622555,13.3488471 C44.8402143,13.8042191 44.5422563,14.1924496 44.1339429,14.4281143 L35.6660571,19.3172571 C35.1151671,19.6503285 34.4272713,19.6596197 33.8675865,19.3415485 C33.3079017,19.0234773 32.9638531,18.4277277 32.9680878,17.7839899 C32.9723225,17.1402521 33.3241791,16.5490804 33.888,16.2384 L42.3558857,11.3492571 C43.2062828,10.8582968 44.2936663,11.149637 44.7846857,12 L44.7846857,12 Z M31.7616,33.8886857 L36.6507429,42.3565714 C36.9838142,42.9074614 36.9931054,43.5953573 36.6750342,44.1550421 C36.356963,44.7147268 35.7612134,45.0587755 35.1174756,45.0545408 C34.4737378,45.0503061 33.8825661,44.6984495 33.5718857,44.1346286 L28.6827429,35.6667429 C28.3496715,35.1158529 28.3403803,34.427957 28.6584515,33.8682722 C28.9765227,33.3085875 29.5722723,32.9645388 30.2160101,32.9687735 C30.8597479,32.9730082 31.4509196,33.3248648 31.7616,33.8886857 L31.7616,33.8886857 Z M14.7627429,29.3334857 C14.9984791,29.7417579 15.0623539,30.2269608 14.9403127,30.6823328 C14.8182714,31.1377048 14.5203135,31.5259353 14.112,31.7616 L5.64411429,36.6507429 C4.79623786,37.1179455 3.73040479,36.8209872 3.24626874,35.9826645 C2.7621327,35.1443418 3.03762624,34.0727599 3.86605714,33.5718857 L12.3339429,28.6827429 C13.1843399,28.1917825 14.2717235,28.4831227 14.7627429,29.3334857 Z M1.37142857,22.2212571 L11.9574857,22.2212571 C12.7149048,22.2212571 13.3289143,22.8352666 13.3289143,23.5926857 L13.3289143,24.4073143 C13.3289143,25.1647334 12.7149048,25.7787429 11.9574857,25.7787429 L1.37142857,25.7787429 C0.614009486,25.7787429 9.27570859e-17,25.1647334 0,24.4073143 L0,23.5926857 C-9.27570859e-17,22.8352666 0.614009486,22.2212571 1.37142857,22.2212571 L1.37142857,22.2212571 Z M23.5926857,0 L24.4073143,0 C25.1647334,4.63785429e-17 25.7787429,0.614009486 25.7787429,1.37142857 L25.7787429,11.9574857 C25.7787429,12.7149048 25.1647334,13.3289143 24.4073143,13.3289143 L23.5926857,13.3289143 C22.8352666,13.3289143 22.2212571,12.7149048 22.2212571,11.9574857 L22.2212571,1.37142857 C22.2212571,0.614009486 22.8352666,1.39135629e-16 23.5926857,0 Z M36.0432,22.2212571 L46.6285714,22.2212571 C47.3859905,22.2212571 48,22.8352666 48,23.5926857 L48,24.4073143 C48,25.1647334 47.3859905,25.7787429 46.6285714,25.7787429 L36.0432,25.7787429 C35.2857809,25.7787429 34.6717714,25.1647334 34.6717714,24.4073143 L34.6717714,23.5926857 C34.6717714,22.8352666 35.2857809,22.2212571 36.0432,22.2212571 Z M23.5926857,34.6717714 L24.4073143,34.6717714 C25.1647334,34.6717714 25.7787429,35.2857809 25.7787429,36.0432 L25.7787429,46.6285714 C25.7787429,47.3859905 25.1647334,48 24.4073143,48 L23.5926857,48 C22.8352666,48 22.2212571,47.3859905 22.2212571,46.6285714 L22.2212571,36.0432 C22.2212571,35.2857809 22.8352666,34.6717714 23.5926857,34.6717714 Z" id="Indeterminate_Spinner_"></path>
        </g>
    </g>
</svg>